<svg width="19" height="19" viewBox="0 0 19 19" fill="none" xmlns="http://www.w3.org/2000/svg">
<path d="M15.3334 15.3333C15.3334 15.8859 15.1139 16.4158 14.7232 16.8065C14.3325 17.1972 13.8026 17.4167 13.25 17.4167C12.6975 17.4167 12.1676 17.1972 11.7769 16.8065C11.3862 16.4158 11.1667 15.8859 11.1667 15.3333C11.1667 14.7808 11.3862 14.2509 11.7769 13.8602C12.1676 13.4695 12.6975 13.25 13.25 13.25C13.8026 13.25 14.3325 13.4695 14.7232 13.8602C15.1139 14.2509 15.3334 14.7808 15.3334 15.3333ZM7.00004 15.3333C7.00004 15.8859 6.78055 16.4158 6.38985 16.8065C5.99915 17.1972 5.46924 17.4167 4.91671 17.4167C4.36417 17.4167 3.83427 17.1972 3.44357 16.8065C3.05287 16.4158 2.83337 15.8859 2.83337 15.3333C2.83337 14.7808 3.05287 14.2509 3.44357 13.8602C3.83427 13.4695 4.36417 13.25 4.91671 13.25C5.46924 13.25 5.99915 13.4695 6.38985 13.8602C6.78055 14.2509 7.00004 14.7808 7.00004 15.3333Z" stroke="#6B7280" stroke-width="1.5"/>
<path d="M0.75 9.08333V13.25C0.75 14.0292 0.75 14.4183 0.9175 14.7083C1.02721 14.8983 1.18499 15.0561 1.375 15.1658C1.665 15.3333 2.05417 15.3333 2.83333 15.3333M11.1667 15.3333H7M11.5833 13.6667V6.58333C11.5833 5.405 11.5833 4.81583 11.2167 4.45C10.8517 4.08333 10.2625 4.08333 9.08333 4.08333H8.25M12 6.16667H13.5008C14.1925 6.16667 14.5383 6.16667 14.825 6.32917C15.1117 6.49083 15.2892 6.7875 15.645 7.38083L17.0608 9.73917C17.2375 10.0342 17.3258 10.1825 17.3717 10.3458C17.4167 10.51 17.4167 10.6817 17.4167 11.0258V13.25C17.4167 14.0292 17.4167 14.4183 17.2492 14.7083C17.1395 14.8983 16.9817 15.0561 16.7917 15.1658C16.5017 15.3333 16.1125 15.3333 15.3333 15.3333M5.625 5.625L4.5 4.875V3M0.75 4.5C0.75 4.99246 0.846997 5.48009 1.03545 5.93506C1.22391 6.39003 1.50013 6.80343 1.84835 7.15165C2.19657 7.49987 2.60997 7.77609 3.06494 7.96455C3.51991 8.153 4.00754 8.25 4.5 8.25C4.99246 8.25 5.48009 8.153 5.93506 7.96455C6.39003 7.77609 6.80343 7.49987 7.15165 7.15165C7.49987 6.80343 7.77609 6.39003 7.96455 5.93506C8.153 5.48009 8.25 4.99246 8.25 4.5C8.25 3.50544 7.85491 2.55161 7.15165 1.84835C6.44839 1.14509 5.49456 0.75 4.5 0.75C3.50544 0.75 2.55161 1.14509 1.84835 1.84835C1.14509 2.55161 0.75 3.50544 0.75 4.5Z" stroke="#6B7280" stroke-width="1.5" stroke-linecap="round" stroke-linejoin="round"/>
</svg>
