<svg width="15" height="15" viewBox="0 0 15 15" fill="none" xmlns="http://www.w3.org/2000/svg">
<path fill-rule="evenodd" clip-rule="evenodd" d="M3.66667 5.5C4.03486 5.5 4.33333 5.79848 4.33333 6.16667L4.33333 13.6667C4.33333 14.0349 4.03486 14.3333 3.66667 14.3333C3.29848 14.3333 3 14.0349 3 13.6667L3 6.16667C3 5.79848 3.29848 5.5 3.66667 5.5Z" fill="white"/>
<path fill-rule="evenodd" clip-rule="evenodd" d="M3.66667 0C4.03486 1.20706e-08 4.33333 0.298477 4.33333 0.666667V2.66667C4.33333 3.03486 4.03486 3.33333 3.66667 3.33333C3.29848 3.33333 3 3.03486 3 2.66667V0.666667C3 0.298477 3.29848 -1.20706e-08 3.66667 0Z" fill="white"/>
<path fill-rule="evenodd" clip-rule="evenodd" d="M0 4C0 2.89543 0.895431 2 2 2H5.33333C6.4379 2 7.33333 2.89543 7.33333 4V4.83333C7.33333 5.9379 6.4379 6.83333 5.33333 6.83333H2C0.89543 6.83333 0 5.9379 0 4.83333V4ZM2 3.33333C1.63181 3.33333 1.33333 3.63181 1.33333 4V4.83333C1.33333 5.20152 1.63181 5.5 2 5.5H5.33333C5.70152 5.5 6 5.20152 6 4.83333V4C6 3.63181 5.70152 3.33333 5.33333 3.33333H2Z" fill="white"/>
<path fill-rule="evenodd" clip-rule="evenodd" d="M11 11C11.3682 11 11.6667 11.2985 11.6667 11.6667V13.6667C11.6667 14.0349 11.3682 14.3333 11 14.3333C10.6318 14.3333 10.3333 14.0349 10.3333 13.6667V11.6667C10.3333 11.2985 10.6318 11 11 11Z" fill="white"/>
<path fill-rule="evenodd" clip-rule="evenodd" d="M11 0C11.3682 0 11.6667 0.298477 11.6667 0.666667V8.16667C11.6667 8.53486 11.3682 8.83333 11 8.83333C10.6318 8.83333 10.3333 8.53486 10.3333 8.16667V0.666667C10.3333 0.298477 10.6318 0 11 0Z" fill="white"/>
<path fill-rule="evenodd" clip-rule="evenodd" d="M7.33333 9.5C7.33333 8.39543 8.22876 7.5 9.33333 7.5H12.6667C13.7712 7.5 14.6667 8.39543 14.6667 9.5V10.3333C14.6667 11.4379 13.7712 12.3333 12.6667 12.3333H9.33333C8.22876 12.3333 7.33333 11.4379 7.33333 10.3333V9.5ZM9.33333 8.83333C8.96514 8.83333 8.66667 9.13181 8.66667 9.5V10.3333C8.66667 10.7015 8.96514 11 9.33333 11H12.6667C13.0349 11 13.3333 10.7015 13.3333 10.3333V9.5C13.3333 9.13181 13.0349 8.83333 12.6667 8.83333H9.33333Z" fill="white"/>
</svg>
